<svg width="364" height="370" viewBox="0 0 364 370" fill="none" xmlns="http://www.w3.org/2000/svg">
<g clip-path="url(#clip0_2_20)">
<path d="M358.245 347H0.790809C0.752619 347 0.714804 346.992 0.679521 346.977C0.644239 346.962 0.61218 346.94 0.585176 346.912C0.558172 346.884 0.536751 346.851 0.522137 346.815C0.507522 346.778 0.5 346.739 0.5 346.7C0.5 346.66 0.507522 346.621 0.522137 346.584C0.536751 346.548 0.558172 346.515 0.585176 346.487C0.61218 346.459 0.644239 346.437 0.679521 346.422C0.714804 346.407 0.752619 346.399 0.790809 346.399H358.245C358.322 346.399 358.396 346.431 358.45 346.487C358.505 346.543 358.535 346.62 358.535 346.7C358.535 346.779 358.505 346.856 358.45 346.912C358.396 346.968 358.322 347 358.245 347H358.245Z" fill="#292A2E"/>
<g opacity="0.65">
<path d="M358.245 347H0.790809C0.752619 347 0.714804 346.992 0.679521 346.977C0.644239 346.962 0.61218 346.94 0.585176 346.912C0.558172 346.884 0.536751 346.851 0.522137 346.815C0.507522 346.778 0.5 346.739 0.5 346.7C0.5 346.66 0.507522 346.621 0.522137 346.584C0.536751 346.548 0.558172 346.515 0.585176 346.487C0.61218 346.459 0.644239 346.437 0.679521 346.422C0.714804 346.407 0.752619 346.399 0.790809 346.399H358.245C358.322 346.399 358.396 346.431 358.45 346.487C358.505 346.543 358.535 346.62 358.535 346.7C358.535 346.779 358.505 346.856 358.45 346.912C358.396 346.968 358.322 347 358.245 347H358.245Z" fill="#292A2E"/>
</g>
<path d="M25.677 346.471L24.8611 346.309L37.6134 215.344L38.4294 215.507L25.677 346.471Z" fill="#494949"/>
<path d="M73.1611 346.471L72.3451 346.309L85.0975 215.344L85.913 215.507L73.1611 346.471Z" fill="#494949"/>
<path d="M178.121 346.471L178.937 346.309L166.185 215.344L165.369 215.507L178.121 346.471Z" fill="#494949"/>
<path d="M130.638 346.471L131.453 346.309L118.701 215.344L117.885 215.507L130.638 346.471Z" fill="#494949"/>
<path d="M113.726 157.707L112.902 157.82L120.352 215.484L121.175 215.37L113.726 157.707Z" fill="#494949"/>
<path d="M28.2177 157.706L27.3941 157.82L34.8438 215.483L35.6674 215.369L28.2177 157.706Z" fill="#494949"/>
<path d="M121.104 211.203H37.4676C35.211 211.203 33.3817 213.093 33.3817 215.425V215.426C33.3817 217.758 35.211 219.649 37.4676 219.649H121.104C123.361 219.649 125.19 217.758 125.19 215.426V215.425C125.19 213.093 123.361 211.203 121.104 211.203Z" fill="#292A2E"/>
<path opacity="0.8" d="M121.104 211.203H37.4676C35.211 211.203 33.3817 213.093 33.3817 215.425V215.426C33.3817 217.758 35.211 219.649 37.4676 219.649H121.104C123.361 219.649 125.19 217.758 125.19 215.426V215.425C125.19 213.093 123.361 211.203 121.104 211.203Z" fill="white"/>
<path d="M121.103 220.078H37.4676C36.2812 220.066 35.1473 219.571 34.3124 218.7C33.4775 217.828 33.0091 216.652 33.0091 215.426C33.0091 214.2 33.4775 213.023 34.3124 212.152C35.1473 211.281 36.2812 210.785 37.4676 210.773H121.103C122.289 210.785 123.423 211.281 124.258 212.152C125.093 213.023 125.561 214.2 125.561 215.426C125.561 216.652 125.093 217.828 124.258 218.7C123.423 219.571 122.289 220.066 121.103 220.078ZM37.4676 211.632C36.5009 211.643 35.5772 212.047 34.8972 212.757C34.2172 213.468 33.8358 214.427 33.8358 215.426C33.8358 216.425 34.2172 217.384 34.8972 218.094C35.5772 218.804 36.5009 219.209 37.4676 219.219H121.103C122.069 219.209 122.993 218.804 123.673 218.094C124.353 217.384 124.734 216.425 124.734 215.426C124.734 214.427 124.353 213.468 123.673 212.757C122.993 212.047 122.069 211.643 121.103 211.632H37.4676Z" fill="#292A2E"/>
<path d="M167.008 211.203H83.3718C81.1152 211.203 79.2859 213.093 79.2859 215.425V215.426C79.2859 217.758 81.1152 219.649 83.3718 219.649H167.008C169.265 219.649 171.094 217.758 171.094 215.426V215.425C171.094 213.093 169.265 211.203 167.008 211.203Z" fill="white"/>
<path d="M167.009 220.078H83.3722C82.7774 220.084 82.1874 219.968 81.6362 219.737C81.085 219.506 80.5837 219.164 80.1611 218.731C79.7385 218.299 79.403 217.784 79.174 217.216C78.9451 216.649 78.8272 216.04 78.8272 215.426C78.8272 214.811 78.9451 214.202 79.174 213.635C79.403 213.068 79.7385 212.553 80.1611 212.12C80.5837 211.688 81.085 211.346 81.6362 211.115C82.1874 210.884 82.7774 210.768 83.3722 210.773H167.009C167.604 210.768 168.194 210.884 168.745 211.115C169.296 211.346 169.797 211.688 170.22 212.12C170.643 212.553 170.978 213.068 171.207 213.635C171.436 214.202 171.554 214.811 171.554 215.426C171.554 216.04 171.436 216.649 171.207 217.216C170.978 217.784 170.643 218.299 170.22 218.731C169.797 219.164 169.296 219.506 168.745 219.737C168.194 219.968 167.604 220.084 167.009 220.078ZM83.3722 211.632C82.8869 211.627 82.4053 211.721 81.9555 211.909C81.5056 212.098 81.0963 212.376 80.7513 212.729C80.4063 213.082 80.1324 213.502 79.9455 213.965C79.7585 214.427 79.6623 214.924 79.6623 215.426C79.6623 215.927 79.7585 216.424 79.9455 216.887C80.1324 217.35 80.4063 217.77 80.7513 218.122C81.0963 218.475 81.5056 218.754 81.9555 218.942C82.4053 219.13 82.8869 219.225 83.3722 219.219H167.009C167.494 219.225 167.976 219.13 168.425 218.942C168.875 218.754 169.285 218.475 169.63 218.122C169.975 217.77 170.249 217.35 170.435 216.887C170.622 216.424 170.719 215.927 170.719 215.426C170.719 214.924 170.622 214.427 170.435 213.965C170.249 213.502 169.975 213.082 169.63 212.729C169.285 212.376 168.875 212.098 168.425 211.909C167.976 211.721 167.494 211.627 167.009 211.632H83.3722Z" fill="#292A2E"/>
<path d="M109.144 157.762H28.0304C26.7043 157.762 25.4235 157.264 24.4271 156.359C23.4307 155.455 22.7868 154.207 22.6156 152.848L17.2502 110.265C17.1498 109.469 17.2149 108.66 17.4412 107.892C17.6674 107.124 18.0496 106.415 18.5621 105.812C19.0746 105.209 19.7058 104.726 20.4134 104.395C21.121 104.064 21.8887 103.892 22.6654 103.892H103.779C105.105 103.892 106.386 104.391 107.382 105.296C108.378 106.2 109.022 107.448 109.194 108.807L114.559 151.39C114.659 152.186 114.594 152.995 114.368 153.763C114.142 154.53 113.759 155.24 113.247 155.843C112.735 156.446 112.103 156.929 111.396 157.26C110.688 157.591 109.921 157.762 109.144 157.762Z" fill="#292A2E"/>
<path opacity="0.8" d="M109.144 157.762H28.0304C26.7043 157.762 25.4235 157.264 24.4271 156.359C23.4307 155.455 22.7868 154.207 22.6156 152.848L17.2502 110.265C17.1498 109.469 17.2149 108.66 17.4412 107.892C17.6674 107.124 18.0496 106.415 18.5621 105.812C19.0746 105.209 19.7058 104.726 20.4134 104.395C21.121 104.064 21.8887 103.892 22.6654 103.892H103.779C105.105 103.892 106.386 104.391 107.382 105.296C108.378 106.2 109.022 107.448 109.194 108.807L114.559 151.39C114.659 152.186 114.594 152.995 114.368 153.763C114.142 154.53 113.759 155.24 113.247 155.843C112.735 156.446 112.103 156.929 111.396 157.26C110.688 157.591 109.921 157.762 109.144 157.762Z" fill="white"/>
<path d="M109.144 158.192H28.0304C26.6044 158.188 25.228 157.651 24.1564 156.678C23.0849 155.706 22.391 154.365 22.2035 152.904L16.838 110.321C16.7301 109.465 16.8002 108.594 17.0436 107.768C17.287 106.942 17.6982 106.178 18.2497 105.529C18.8012 104.88 19.4803 104.361 20.2417 104.004C21.0031 103.648 21.8293 103.464 22.665 103.464H103.779C105.205 103.467 106.582 104.005 107.653 104.978C108.725 105.951 109.419 107.292 109.606 108.753L114.971 151.335C115.079 152.192 115.009 153.062 114.766 153.889C114.522 154.715 114.111 155.478 113.559 156.127C113.008 156.776 112.329 157.296 111.567 157.652C110.806 158.008 109.98 158.192 109.144 158.193V158.192ZM22.665 104.322C21.9475 104.322 21.2381 104.48 20.5844 104.786C19.9307 105.092 19.3477 105.538 18.8742 106.095C18.4007 106.653 18.0477 107.308 17.8387 108.017C17.6297 108.727 17.5696 109.474 17.6623 110.209L23.0273 152.792C23.1883 154.047 23.784 155.198 24.7041 156.033C25.6241 156.868 26.806 157.33 28.0304 157.333H109.144C109.862 157.333 110.571 157.175 111.225 156.869C111.879 156.563 112.462 156.116 112.936 155.559C113.409 155.002 113.762 154.346 113.971 153.637C114.18 152.927 114.24 152.18 114.147 151.444L108.782 108.862C108.621 107.607 108.025 106.456 107.105 105.621C106.185 104.786 105.003 104.325 103.779 104.322H22.665Z" fill="#292A2E"/>
<path d="M113.731 157.762H32.6173C31.2912 157.762 30.0103 157.264 29.0138 156.359C28.0173 155.455 27.3734 154.207 27.202 152.848L21.8366 110.265C21.7364 109.469 21.8016 108.66 22.0279 107.892C22.2542 107.124 22.6364 106.415 23.1489 105.812C23.6614 105.209 24.2925 104.726 25 104.395C25.7075 104.064 26.4752 103.893 27.2519 103.892H108.366C109.692 103.892 110.973 104.391 111.969 105.296C112.965 106.2 113.609 107.448 113.781 108.807L119.146 151.39C119.246 152.186 119.181 152.995 118.955 153.763C118.729 154.53 118.346 155.24 117.834 155.843C117.321 156.446 116.69 156.929 115.983 157.26C115.275 157.591 114.508 157.762 113.731 157.762Z" fill="white"/>
<path d="M113.731 158.192H32.6173C31.1913 158.188 29.8148 157.651 28.7432 156.678C27.6717 155.706 26.9778 154.365 26.7904 152.904L21.4249 110.321C21.317 109.465 21.3871 108.594 21.6305 107.768C21.8739 106.942 22.2851 106.178 22.8366 105.529C23.3881 104.88 24.0672 104.361 24.8286 104.004C25.59 103.648 26.4161 103.464 27.2519 103.464H108.366C109.792 103.467 111.168 104.005 112.24 104.978C113.312 105.95 114.005 107.292 114.193 108.753L119.558 151.335C119.666 152.192 119.596 153.062 119.352 153.889C119.109 154.715 118.698 155.478 118.146 156.127C117.595 156.776 116.916 157.296 116.154 157.652C115.393 158.008 114.567 158.193 113.731 158.193V158.192ZM27.2519 104.322C26.5343 104.322 25.825 104.48 25.1713 104.786C24.5175 105.092 23.9345 105.538 23.461 106.095C22.9874 106.653 22.6344 107.308 22.4253 108.017C22.2163 108.727 22.1561 109.474 22.2488 110.209L27.6142 152.792C27.775 154.047 28.3707 155.198 29.2908 156.033C30.2109 156.868 31.3928 157.33 32.6173 157.333H113.731C114.449 157.333 115.158 157.175 115.812 156.869C116.466 156.563 117.049 156.117 117.523 155.559C117.996 155.002 118.349 154.346 118.558 153.637C118.767 152.927 118.827 152.18 118.735 151.444L113.369 108.862C113.208 107.607 112.613 106.455 111.693 105.62C110.772 104.785 109.59 104.323 108.366 104.321L27.2519 104.322Z" fill="#292A2E"/>
<path d="M228.129 324.568C228.129 324.568 230.357 336.501 241.167 337.166C251.978 337.83 249.634 346.732 249.634 346.732H208.321V325.4L228.129 324.568Z" fill="black"/>
<path d="M149.532 317.034C149.532 317.034 146.434 328.757 155.851 334.286C165.268 339.815 159.363 346.732 159.363 346.732L122.292 327.883L131.403 308.742L149.532 317.034Z" fill="black"/>
<path d="M116.266 38.9764C116.266 38.9764 121.656 34.7718 122.992 25.0934C124.026 17.5996 117.337 22.4542 117.337 22.4542C117.337 22.4542 118.031 17.0513 114.222 17.5871C110.412 18.1229 108.281 23.7998 108.281 23.7998" fill="#0C0C0C"/>
<path d="M94.5343 18.2195C94.5343 18.2195 75.6338 20.3139 82.4661 46.7823L84.1387 46.8978L87.5337 47.1331" fill="#0C0C0C"/>
<path d="M113.101 74.4246C113.018 74.4135 112.095 90.2246 94.3203 88.8473C82.0149 87.895 77.6275 74.4023 77.3454 74.4023C78.6723 74.1108 80.3116 73.6686 80.9635 73.5166C82.3835 73.1759 83.6696 72.3964 84.6505 71.2819C85.6314 70.1673 86.2608 68.7705 86.4548 67.2773C86.815 65.0361 86.2055 53.5691 86.392 51.3012L105.281 55.6587C105.017 60.4481 103.17 71.5514 109.643 73.5166C110.722 73.8416 111.882 74.1404 113.101 74.4246Z" fill="#E98862"/>
<path opacity="0.52" d="M105.546 68.9788C105.251 67.9934 105.06 66.9775 104.978 65.9493C104.771 63.6027 104.813 61.2396 105.103 58.9024C101.263 58.3669 97.6466 56.7291 94.6631 54.1753C94.3124 55.514 92.3835 61.3634 92.9182 62.636C93.9257 65.0408 98.6687 68.9788 105.546 68.9788Z" fill="#0C0C0C"/>
<path d="M101.648 65.8493C94.1957 65.1584 85.2766 60.2926 85.1482 49.8384L85.0319 40.4061C84.9035 29.9519 90.1119 21.4075 99.6363 21.2825C109.16 21.1571 116.384 29.5384 116.512 39.9922L116.563 44.168C116.557 45.6022 116.456 47.0343 116.261 48.4542C115.772 52.211 115.014 57.9226 112.548 61.7868C110.218 65.4341 106.408 66.2906 101.648 65.8493Z" fill="#E98862"/>
<path d="M105.105 56.2937C106.643 56.3657 108.176 56.0632 109.579 55.4105C109.608 55.3977 109.635 55.3791 109.657 55.3558C109.679 55.3325 109.696 55.305 109.708 55.2747C109.72 55.2444 109.726 55.2121 109.725 55.1795C109.725 55.1469 109.719 55.1146 109.706 55.0846C109.694 55.0546 109.676 55.0275 109.653 55.0046C109.631 54.9818 109.604 54.9638 109.575 54.9517C109.545 54.9395 109.514 54.9334 109.483 54.9338C109.451 54.9341 109.42 54.9409 109.391 54.9537C106.366 56.2868 103.62 56.0915 101.449 54.3891C101.405 54.3533 101.359 54.3199 101.312 54.2891C101.258 54.2629 101.196 54.2589 101.138 54.2777C101.081 54.2965 101.033 54.3368 101.003 54.3907C100.973 54.4446 100.963 54.5081 100.976 54.5688C100.989 54.6294 101.024 54.6828 101.073 54.7184C101.091 54.7296 101.119 54.7523 101.156 54.7837C102.298 55.6821 103.673 56.2079 105.105 56.2937Z" fill="#0C0C0C"/>
<path d="M105.033 58.6487C105.311 58.6666 105.59 58.6597 105.867 58.6281C105.93 58.6211 105.988 58.5884 106.028 58.5372C106.068 58.486 106.087 58.4205 106.08 58.355C106.073 58.2895 106.042 58.2295 105.992 58.1881C105.943 58.1467 105.879 58.1274 105.816 58.1343C104.151 58.3172 103.357 57.5289 103.323 57.495C103.278 57.4505 103.217 57.4261 103.155 57.427C103.092 57.4279 103.032 57.454 102.988 57.4997C102.944 57.5454 102.918 57.6072 102.918 57.6719C102.917 57.7366 102.94 57.7991 102.983 57.8462C103.556 58.3502 104.281 58.6337 105.033 58.6487Z" fill="#0C0C0C"/>
<path d="M113.367 46.1783C114.015 46.1783 114.54 45.6354 114.54 44.9658C114.54 44.2961 114.015 43.7533 113.367 43.7533C112.719 43.7533 112.193 44.2961 112.193 44.9658C112.193 45.6354 112.719 46.1783 113.367 46.1783Z" fill="#0C0C0C"/>
<path d="M101.905 45.4351C102.553 45.4351 103.079 44.8922 103.079 44.2226C103.079 43.5529 102.553 43.0101 101.905 43.0101C101.258 43.0101 100.732 43.5529 100.732 44.2226C100.732 44.8922 101.258 45.4351 101.905 45.4351Z" fill="#0C0C0C"/>
<path d="M85.7788 53.0156C82.8845 53.0538 80.499 49.8844 80.4612 46.8931C80.4234 43.9018 82.7503 42.2218 85.6447 42.1836L87.1606 44.168L88.2665 52.983L85.7788 53.0156Z" fill="#E98862"/>
<path d="M88.6566 48.2091C88.6566 48.2091 89.6341 33.4167 93.9743 32.5035C96.8649 31.8951 103.875 36.1324 110.367 34.8525C113.208 34.2943 115.905 35.0195 116.179 36.4059C116.287 36.955 118.057 29.064 113.609 23.0772C110.067 18.3114 98.4772 16.9633 93.2044 18.5261C78.6046 22.8548 85.0473 42.8349 85.0473 42.8349L85.6983 47.9343L88.6566 48.2091Z" fill="#0C0C0C"/>
<path d="M106.853 52.8026C106.859 52.8031 106.865 52.8031 106.872 52.8026C107.804 52.7928 109.368 52.6691 109.361 51.9478C109.355 51.3502 107.71 44.9172 107.522 44.1856C107.501 44.1286 107.461 44.0816 107.408 44.0537C107.356 44.0258 107.295 44.0191 107.238 44.0348C107.181 44.0504 107.132 44.0874 107.1 44.1386C107.068 44.1897 107.055 44.2513 107.065 44.3114C107.796 47.1606 108.884 51.5468 108.889 51.9538C108.798 52.1256 107.835 52.302 106.869 52.3123C106.808 52.3137 106.75 52.3391 106.707 52.3835C106.664 52.4278 106.638 52.4876 106.637 52.5505C106.635 52.6135 106.657 52.6747 106.697 52.7216C106.738 52.7686 106.794 52.7976 106.855 52.8026H106.853Z" fill="#0C0C0C"/>
<path d="M110.037 38.3916C111.017 38.1128 112.052 38.1128 113.032 38.3916C113.514 38.5253 113.973 38.7332 114.395 39.0081C114.812 39.2773 115.194 39.5999 115.533 39.9682C115.598 40.0331 115.635 40.1218 115.638 40.2151C115.64 40.3085 115.607 40.3991 115.546 40.4676C115.484 40.5361 115.399 40.577 115.309 40.5815C115.219 40.5861 115.13 40.5539 115.063 40.492L115.042 40.4731C114.728 40.1731 114.379 39.915 114.003 39.705C113.634 39.4961 113.237 39.3463 112.824 39.2606C112.013 39.0843 111.171 39.1328 110.383 39.4014L110.35 39.4134C110.22 39.4609 110.077 39.4531 109.952 39.3917C109.828 39.3303 109.732 39.2204 109.686 39.0861C109.641 38.9518 109.648 38.8041 109.707 38.6755C109.767 38.547 109.873 38.4481 110.003 38.4006L110.037 38.3916Z" fill="#0C0C0C"/>
<path d="M103.096 39C102.35 38.6254 101.521 38.4611 100.694 38.5238C100.275 38.552 99.8615 38.6458 99.4689 38.802C99.0698 38.9586 98.6913 39.1664 98.3422 39.4203L98.3198 39.4357C98.2448 39.4854 98.1543 39.5033 98.0669 39.4857C97.9795 39.4681 97.9021 39.4165 97.8506 39.3414C97.7992 39.2663 97.7777 39.1737 97.7906 39.0827C97.8036 38.9916 97.85 38.9093 97.9201 38.8527C98.3034 38.5344 98.724 38.2673 99.1718 38.0575C99.6254 37.8435 100.107 37.7008 100.602 37.6342C101.097 37.5623 101.599 37.561 102.095 37.6303C102.603 37.6957 103.1 37.8355 103.571 38.0455C103.698 38.1025 103.797 38.2091 103.848 38.3419C103.899 38.4748 103.896 38.623 103.841 38.7539C103.786 38.8849 103.683 38.9879 103.554 39.0402C103.426 39.0925 103.282 39.09 103.156 39.033C103.146 39.0287 103.136 39.024 103.127 39.0189L103.096 39Z" fill="#0C0C0C"/>
<path d="M108.642 28.2083C110.784 27.7457 111.987 24.7289 111.328 21.4701C110.67 18.2113 108.399 15.9445 106.256 16.4071C104.114 16.8697 102.911 19.8865 103.57 23.1453C104.229 26.4041 106.5 28.6709 108.642 28.2083Z" fill="#0C0C0C"/>
<path d="M126.572 313.722L157.834 211.799H101.168C89.7845 211.799 85.0394 201.823 85.0394 190.06C85.0394 178.297 96.2297 167.985 107.612 167.985H184.09C191.033 167.985 198.817 172.373 202.628 178.371C206.438 184.369 205.408 193.663 202.647 200.246L152.587 325.902" fill="#262626"/>
<path opacity="0.8" d="M126.572 313.722L157.834 211.799H101.168C89.7845 211.799 85.0394 201.823 85.0394 190.06C85.0394 178.297 96.2297 167.985 107.612 167.985H184.09C191.033 167.985 198.817 172.373 202.628 178.371C206.438 184.369 205.408 193.663 202.647 200.246L152.587 325.902" fill="#0A0A0A"/>
<path d="M205.945 335.65L153.673 211.799L85.0385 211.794C68.9564 210.491 61.591 201.383 61.8253 189.622C62.0563 178.01 67.7454 166.541 78.9303 166.541H171.437C179.713 166.717 186.224 176.168 189.294 184.112L232.749 328.068" fill="#262626"/>
<path d="M57.1442 166.683C57.1442 166.683 54.0961 187.226 58.9276 198.647C64.9594 212.906 87.5711 211.795 87.5711 211.795L86.2969 166.542L57.1442 166.683Z" fill="#262626"/>
<path d="M191.261 166.279L142.779 155.897C140.758 155.464 138.876 154.512 137.307 153.128C135.737 151.745 134.53 149.974 133.798 147.98L114.73 96.0496C114.149 94.491 113.872 92.8293 113.915 91.1598C113.957 89.4903 114.319 87.846 114.978 86.3213C115.637 84.7965 116.582 83.4214 117.757 82.275C118.932 81.1286 120.315 80.2334 121.825 79.6408C123.336 79.0483 124.945 78.77 126.561 78.8221C128.176 78.8742 129.765 79.2556 131.237 79.9443C132.709 80.6331 134.035 81.6157 135.139 82.8356C136.243 84.0555 137.102 85.4888 137.668 87.053L154.349 132.478L196.24 141.449C196.24 141.449 192.101 166.459 191.261 166.279Z" fill="#1F41BB"/>
<path d="M135.186 109.239C134.626 116.037 130.658 158.447 130.118 166.82H57.1761C56.757 159.268 54.875 126.246 53.2859 111.477C51.7688 97.3853 49.6421 90.9725 51.3895 86.5932C54.4712 78.8697 64.2806 75.4203 70.9235 74.4912C74.9795 73.9236 81.0802 73.5165 81.0802 73.5165C81.0802 73.5165 81.597 84.3159 93.914 84.917C110.681 85.7328 109.561 73.5165 109.644 73.5165C112.36 73.5165 127.146 75.5581 130.843 78.0483C136.065 81.566 137.608 86.3592 137.669 90.7634C137.739 95.834 135.821 101.528 135.186 109.239Z" fill="#1F41BB"/>
<path d="M132.319 143.891H132.302C132.275 143.888 132.248 143.88 132.224 143.867C132.2 143.855 132.178 143.837 132.161 143.815C132.143 143.794 132.13 143.769 132.121 143.742C132.113 143.715 132.11 143.687 132.112 143.659L134.006 120.15C134.007 120.122 134.014 120.094 134.027 120.069C134.039 120.043 134.056 120.021 134.077 120.002C134.098 119.984 134.122 119.97 134.148 119.962C134.175 119.954 134.202 119.951 134.23 119.954C134.257 119.956 134.283 119.964 134.308 119.977C134.332 119.99 134.353 120.008 134.371 120.029C134.389 120.051 134.402 120.076 134.41 120.103C134.419 120.129 134.422 120.158 134.42 120.186L132.526 143.694C132.521 143.748 132.498 143.798 132.46 143.834C132.421 143.87 132.371 143.89 132.319 143.891Z" fill="#0C0C0C"/>
<path d="M144.046 162.158L160.051 111.313C160.332 110.419 160.879 109.641 161.615 109.089C162.351 108.537 163.236 108.239 164.146 108.239H229.35C230.03 108.239 230.7 108.405 231.305 108.724C231.911 109.043 232.435 109.506 232.834 110.074C233.234 110.643 233.497 111.301 233.603 111.995C233.71 112.688 233.655 113.398 233.445 114.066L217.44 164.911C217.159 165.804 216.612 166.583 215.876 167.135C215.14 167.687 214.255 167.985 213.345 167.985H148.141C147.461 167.985 146.791 167.818 146.186 167.5C145.58 167.181 145.056 166.718 144.657 166.15C144.257 165.581 143.994 164.923 143.888 164.229C143.782 163.536 143.836 162.826 144.046 162.158Z" fill="#292A2E"/>
<path opacity="0.2" d="M144.046 162.158L160.051 111.313C160.332 110.419 160.879 109.641 161.615 109.089C162.351 108.537 163.236 108.239 164.146 108.239H229.35C230.03 108.239 230.7 108.405 231.305 108.724C231.911 109.043 232.435 109.506 232.834 110.074C233.234 110.643 233.497 111.301 233.603 111.995C233.71 112.688 233.655 113.398 233.445 114.066L217.44 164.911C217.159 165.804 216.612 166.583 215.876 167.135C215.14 167.687 214.255 167.985 213.345 167.985H148.141C147.461 167.985 146.791 167.818 146.186 167.5C145.58 167.181 145.056 166.718 144.657 166.15C144.257 165.581 143.994 164.923 143.888 164.229C143.782 163.536 143.836 162.826 144.046 162.158Z" fill="white"/>
<path d="M157.102 163.862H113.454C112.366 163.862 111.485 164.773 111.485 165.897V165.95C111.485 167.074 112.366 167.985 113.454 167.985H157.102C158.189 167.985 159.071 167.074 159.071 165.95V165.897C159.071 164.773 158.189 163.862 157.102 163.862Z" fill="#292A2E"/>
<path opacity="0.2" d="M157.102 163.862H113.454C112.366 163.862 111.485 164.773 111.485 165.897V165.95C111.485 167.074 112.366 167.985 113.454 167.985H157.102C158.189 167.985 159.071 167.074 159.071 165.95V165.897C159.071 164.773 158.189 163.862 157.102 163.862Z" fill="white"/>
<path d="M188.746 147.66C192.522 147.66 195.584 144.496 195.584 140.592C195.584 136.689 192.522 133.525 188.746 133.525C184.969 133.525 181.907 136.689 181.907 140.592C181.907 144.496 184.969 147.66 188.746 147.66Z" fill="white"/>
<path d="M135.847 99.7617H118.509V121.737H135.847V99.7617Z" fill="white"/>
<path d="M118.509 118.087C117.104 118.087 115.731 117.657 114.564 116.851C113.396 116.044 112.486 114.898 111.949 113.557C111.411 112.216 111.271 110.741 111.545 109.318C111.819 107.894 112.495 106.587 113.488 105.56C114.481 104.534 115.746 103.835 117.123 103.552C118.501 103.269 119.928 103.414 121.226 103.97C122.523 104.525 123.632 105.466 124.412 106.672C125.192 107.879 125.609 109.298 125.609 110.749C125.607 112.695 124.858 114.56 123.527 115.936C122.196 117.311 120.391 118.085 118.509 118.087ZM118.509 106.417C117.679 106.417 116.869 106.671 116.179 107.147C115.49 107.623 114.953 108.3 114.635 109.092C114.318 109.883 114.235 110.755 114.397 111.595C114.559 112.435 114.958 113.207 115.544 113.813C116.131 114.419 116.878 114.832 117.691 114.999C118.504 115.166 119.347 115.08 120.113 114.752C120.879 114.424 121.534 113.869 121.994 113.156C122.455 112.444 122.701 111.606 122.701 110.749C122.7 109.601 122.258 108.499 121.472 107.687C120.686 106.875 119.62 106.418 118.509 106.417Z" fill="white"/>
<path d="M119.509 114.005C119.35 113.58 119.053 113.227 118.668 113.007C118.283 112.786 117.836 112.712 117.403 112.799C117.412 112.778 117.416 112.756 117.416 112.734L117.998 112.465C118.405 112.286 118.741 111.967 118.947 111.562C119.153 111.157 119.217 110.691 119.128 110.243C119.067 109.963 118.947 109.7 118.776 109.474C118.605 109.248 118.387 109.064 118.139 108.935C117.891 108.807 117.618 108.737 117.34 108.73C117.063 108.723 116.787 108.781 116.534 108.897L115.162 109.532C115.162 109.526 115.162 109.52 115.159 109.515C115.153 109.503 115.147 109.493 115.139 109.483C115.477 109.22 115.719 108.846 115.825 108.422C115.931 107.999 115.895 107.551 115.723 107.151C115.342 106.086 113.991 106.001 113.099 106.413L109.512 107.908L110.594 106.773C110.934 106.403 111.124 105.914 111.128 105.404C111.131 104.895 110.948 104.403 110.614 104.028C110.434 103.84 110.22 103.693 109.984 103.594C109.748 103.495 109.495 103.447 109.24 103.452C108.985 103.458 108.735 103.517 108.503 103.626C108.271 103.735 108.063 103.892 107.892 104.087L95.1375 118.482L99.4996 122.824C100.854 124.172 102.567 125.072 104.42 125.408C106.272 125.743 108.18 125.499 109.897 124.707L117.671 121.105C118.079 120.926 118.414 120.607 118.62 120.202C118.826 119.797 118.89 119.331 118.801 118.883C118.713 118.48 118.503 118.117 118.201 117.847C117.899 117.577 117.522 117.413 117.124 117.38C117.128 117.358 117.128 117.335 117.124 117.312C117.12 117.29 117.111 117.269 117.099 117.25C117.087 117.231 117.071 117.215 117.053 117.202C117.034 117.19 117.014 117.181 116.992 117.177L118.428 116.515C118.882 116.316 119.246 115.946 119.447 115.48C119.648 115.014 119.67 114.487 119.509 114.005Z" fill="#E98862"/>
<path opacity="0.2" d="M112.568 110.75C112.527 110.75 112.487 110.735 112.455 110.708C112.424 110.681 112.402 110.643 112.394 110.602C112.387 110.56 112.393 110.517 112.413 110.479C112.433 110.442 112.465 110.413 112.503 110.398L114.93 109.41C114.951 109.402 114.974 109.397 114.997 109.398C115.02 109.398 115.043 109.403 115.064 109.413C115.086 109.422 115.105 109.436 115.121 109.453C115.137 109.471 115.15 109.491 115.158 109.513C115.167 109.535 115.171 109.559 115.17 109.583C115.17 109.607 115.165 109.63 115.156 109.652C115.146 109.674 115.133 109.694 115.117 109.711C115.1 109.727 115.08 109.74 115.059 109.749L112.633 110.737C112.612 110.745 112.59 110.749 112.568 110.75Z" fill="#0C0C0C"/>
<path opacity="0.2" d="M113.922 114.295C113.881 114.295 113.842 114.28 113.81 114.253C113.779 114.226 113.757 114.189 113.75 114.148C113.742 114.106 113.748 114.063 113.768 114.026C113.787 113.989 113.819 113.96 113.856 113.944L117.175 112.565C117.218 112.549 117.265 112.552 117.306 112.571C117.347 112.59 117.38 112.625 117.397 112.669C117.414 112.712 117.414 112.761 117.397 112.804C117.38 112.848 117.348 112.883 117.306 112.902L113.988 114.282C113.967 114.291 113.945 114.295 113.922 114.295Z" fill="#0C0C0C"/>
<path opacity="0.2" d="M115.369 118.145C115.328 118.145 115.288 118.13 115.257 118.102C115.225 118.075 115.203 118.037 115.196 117.995C115.189 117.953 115.196 117.91 115.216 117.873C115.237 117.836 115.269 117.807 115.308 117.792L116.89 117.179C116.933 117.162 116.982 117.163 117.024 117.183C117.067 117.203 117.1 117.24 117.117 117.285C117.133 117.33 117.132 117.38 117.113 117.424C117.093 117.468 117.058 117.503 117.014 117.52L115.432 118.133C115.412 118.141 115.391 118.145 115.369 118.145Z" fill="#0C0C0C"/>
<path d="M123.198 85.7835C123.121 85.7835 123.046 85.7618 122.981 85.7205C122.915 85.6793 122.862 85.6203 122.827 85.5499C121.882 83.644 120.705 81.2714 120.837 78.7842C120.943 76.8062 121.84 75.0489 122.707 73.3517C123.267 72.3258 123.744 71.2539 124.134 70.147C124.61 68.6196 124.729 66.9978 124.484 65.4134C124.239 63.8291 123.635 62.327 122.722 61.0294C122.687 60.9842 122.662 60.9324 122.648 60.877C122.633 60.8216 122.63 60.7638 122.637 60.707C122.645 60.6501 122.663 60.5954 122.691 60.546C122.72 60.4967 122.757 60.4537 122.802 60.4196C122.847 60.3855 122.897 60.361 122.951 60.3475C123.005 60.3341 123.061 60.3319 123.116 60.3412C123.171 60.3505 123.223 60.3711 123.27 60.4017C123.317 60.4323 123.358 60.4723 123.39 60.5193C124.381 61.9275 125.038 63.5578 125.305 65.2776C125.572 66.9973 125.442 68.758 124.927 70.4162C124.523 71.5689 124.028 72.6849 123.445 73.7527C122.581 75.4439 121.765 77.0411 121.67 78.8319C121.549 81.0864 122.623 83.2499 123.569 85.1583C123.602 85.2237 123.618 85.2967 123.615 85.3701C123.612 85.4436 123.591 85.5151 123.554 85.5778C123.517 85.6406 123.465 85.6924 123.403 85.7284C123.341 85.7644 123.271 85.7834 123.2 85.7835H123.198Z" fill="white"/>
<path d="M129.868 92.4847C129.776 92.4847 129.687 92.4531 129.614 92.3948C129.541 92.3365 129.489 92.2548 129.466 92.1627C129.443 92.0705 129.45 91.9731 129.487 91.8856C129.523 91.7982 129.587 91.7258 129.667 91.6797C131.207 90.8021 131.379 88.3595 130.656 86.5052C130.297 85.6529 129.877 84.8294 129.4 84.0416C128.762 83.0208 128.243 81.9255 127.855 80.7785C127.458 79.3802 127.433 77.8971 127.783 76.4854C128.132 75.0736 128.843 73.7852 129.841 72.7557C129.921 72.6776 130.027 72.635 130.136 72.6372C130.246 72.6394 130.35 72.6862 130.426 72.7674C130.502 72.8487 130.545 72.9577 130.543 73.0709C130.542 73.1841 130.498 73.2923 130.42 73.3719C129.53 74.29 128.896 75.4388 128.584 76.6977C128.273 77.9567 128.295 79.2791 128.649 80.5261C129.018 81.6082 129.51 82.6412 130.115 83.6036C130.614 84.4281 131.053 85.2905 131.426 86.1836C132.273 88.3548 132.085 91.2821 130.068 92.431C130.007 92.466 129.938 92.4845 129.868 92.4847Z" fill="white"/>
<path d="M109.761 129.91L48.5873 156.075C46.3817 157.008 43.9609 157.257 41.6207 156.791C39.2805 156.325 37.1221 155.165 35.4095 153.453C33.6968 151.74 32.5039 149.549 31.9765 147.147C31.4492 144.745 31.6102 142.236 32.4399 139.927L50.6853 88.4252C53.0442 81.8614 59.6891 78.087 66.0408 80.5252C69.0907 81.696 71.5657 84.0709 72.9214 87.1275C74.277 90.1841 74.4022 93.6721 73.2695 96.8241L64.9474 121.2L100.8 106.916" fill="#1F41BB"/>
<path d="M109.612 130.144C109.579 130.143 109.548 130.133 109.52 130.114C109.493 130.096 109.472 130.069 109.46 130.038L100.559 107.197L64.8265 121.449C64.7969 121.46 64.7646 121.463 64.7336 121.456C64.7026 121.45 64.6741 121.434 64.6517 121.41C64.6294 121.387 64.614 121.358 64.6075 121.326C64.6011 121.293 64.6038 121.26 64.6154 121.23L70.1408 106.573C70.1566 106.532 70.1877 106.498 70.2274 106.48C70.2671 106.462 70.3121 106.461 70.3525 106.477C70.3929 106.494 70.4253 106.526 70.4427 106.567C70.4601 106.608 70.4611 106.654 70.4453 106.696L65.0546 120.995L100.592 106.821C100.632 106.805 100.676 106.806 100.716 106.823C100.755 106.841 100.786 106.874 100.802 106.915L109.764 129.911C109.779 129.953 109.778 129.999 109.761 130.041C109.745 130.082 109.713 130.114 109.673 130.132C109.653 130.14 109.633 130.144 109.612 130.144Z" fill="#0C0C0C"/>
<path d="M53.6042 125.984C53.5659 125.984 53.5287 125.971 53.4991 125.945C53.4696 125.92 53.4494 125.885 53.4423 125.846C53.4352 125.808 53.4415 125.767 53.4602 125.733C53.4788 125.698 53.5086 125.672 53.5444 125.657L64.7359 121.106C64.756 121.098 64.7775 121.093 64.7992 121.094C64.8209 121.094 64.8423 121.098 64.8623 121.107C64.8823 121.116 64.9003 121.129 64.9155 121.145C64.9306 121.161 64.9425 121.18 64.9505 121.201C64.9584 121.222 64.9623 121.244 64.9618 121.266C64.9614 121.289 64.9566 121.311 64.9478 121.331C64.939 121.352 64.9264 121.37 64.9106 121.386C64.8949 121.401 64.8763 121.413 64.856 121.421L53.664 125.972C53.6449 125.98 53.6246 125.984 53.6042 125.984Z" fill="#0C0C0C"/>
<path d="M56.2107 153.019C56.1727 153.02 56.1359 153.006 56.1066 152.981C56.0772 152.956 56.0571 152.922 56.0497 152.883C56.0424 152.845 56.0482 152.805 56.0662 152.771C56.0842 152.736 56.1132 152.709 56.1483 152.694L109.551 129.819C109.571 129.81 109.592 129.806 109.614 129.806C109.635 129.806 109.656 129.81 109.676 129.819C109.696 129.827 109.714 129.84 109.729 129.855C109.744 129.871 109.756 129.89 109.765 129.91C109.773 129.931 109.777 129.953 109.777 129.975C109.777 129.997 109.773 130.019 109.764 130.04C109.756 130.06 109.744 130.079 109.729 130.094C109.714 130.11 109.696 130.122 109.676 130.131L56.273 153.006C56.2533 153.015 56.2321 153.019 56.2107 153.019Z" fill="#0C0C0C"/>
<path d="M327.332 290.695C327.222 290.695 327.116 290.65 327.038 290.569C326.453 289.964 325.499 278.866 322.929 245.821C321.877 232.3 320.884 219.529 320.16 211.767C320.108 211.213 319.9 211.148 319.831 211.127C318.839 210.818 315.821 213.277 314.137 215.43C314.068 215.519 313.967 215.575 313.858 215.587C313.748 215.599 313.638 215.566 313.553 215.494C313.467 215.423 313.412 215.319 313.4 215.206C313.389 215.093 313.421 214.979 313.49 214.891C314.605 213.467 318.236 209.734 320.07 210.305C320.44 210.42 320.901 210.752 320.987 211.685C321.712 219.453 322.705 232.228 323.757 245.752C325.319 265.833 327.088 288.582 327.669 290.015C327.714 290.079 327.741 290.155 327.746 290.233C327.752 290.312 327.737 290.391 327.702 290.461C327.667 290.532 327.614 290.591 327.549 290.632C327.484 290.673 327.409 290.695 327.332 290.695Z" fill="#494949"/>
<path d="M319.092 226.009C325.986 220.298 328.271 211.409 324.196 206.155C320.12 200.901 311.228 201.271 304.335 206.982C297.441 212.693 295.156 221.582 299.231 226.836C303.306 232.09 312.198 231.72 319.092 226.009Z" fill="#1F41BB"/>
<path opacity="0.2" d="M319.092 226.009C325.986 220.298 328.271 211.409 324.196 206.155C320.12 200.901 311.228 201.271 304.335 206.982C297.441 212.693 295.156 221.582 299.231 226.836C303.306 232.09 312.198 231.72 319.092 226.009Z" fill="white"/>
<path d="M301.163 228.173C301.124 228.173 301.085 228.161 301.052 228.139C301.019 228.117 300.992 228.086 300.975 228.049C300.959 228.012 300.952 227.971 300.958 227.931C300.963 227.89 300.979 227.852 301.004 227.821L320.651 203.335C320.668 203.313 320.689 203.295 320.713 203.281C320.738 203.268 320.764 203.259 320.792 203.256C320.819 203.253 320.847 203.256 320.873 203.264C320.9 203.273 320.924 203.286 320.945 203.305C320.967 203.323 320.984 203.345 320.997 203.371C321.01 203.396 321.017 203.423 321.02 203.452C321.022 203.48 321.019 203.509 321.01 203.536C321.002 203.563 320.988 203.588 320.97 203.61L301.323 228.095C301.304 228.119 301.279 228.139 301.252 228.152C301.224 228.166 301.194 228.173 301.163 228.173Z" fill="white"/>
<path d="M331.617 285.446C331.551 285.446 331.486 285.429 331.427 285.398C331.368 285.367 331.317 285.321 331.279 285.265C331.24 285.209 331.215 285.145 331.206 285.077C331.196 285.009 331.203 284.94 331.225 284.875L338.605 262.941C338.822 262.297 339.192 261.719 339.682 261.26C340.171 260.802 340.764 260.478 341.406 260.318C342.048 260.158 342.718 260.167 343.356 260.344C343.994 260.521 344.578 260.861 345.056 261.332L348.957 265.184C349.037 265.263 349.083 265.371 349.086 265.485C349.088 265.598 349.047 265.709 348.971 265.791C348.895 265.873 348.79 265.921 348.68 265.924C348.57 265.926 348.463 265.883 348.383 265.805L344.482 261.953C344.105 261.581 343.643 261.313 343.14 261.173C342.637 261.034 342.107 261.027 341.601 261.153C341.094 261.279 340.626 261.535 340.24 261.897C339.853 262.258 339.561 262.714 339.389 263.223L332.01 285.157C331.981 285.241 331.928 285.314 331.858 285.366C331.788 285.418 331.704 285.446 331.617 285.446Z" fill="#494949"/>
<path d="M359.858 277.328C364.967 273.149 364.664 263.957 359.18 256.797C353.697 249.638 345.11 247.222 340.001 251.401C334.892 255.581 335.196 264.772 340.679 271.932C346.163 279.091 354.75 281.507 359.858 277.328Z" fill="#1F41BB"/>
<path d="M323.979 289.296C323.886 289.296 323.795 289.263 323.722 289.204C323.649 289.144 323.597 289.06 323.576 288.966L311.191 235.451C311.107 235.086 310.926 234.752 310.67 234.487C310.414 234.221 310.092 234.033 309.739 233.945C309.386 233.856 309.017 233.869 308.671 233.984C308.325 234.098 308.017 234.308 307.779 234.592L303.962 239.151C303.926 239.194 303.883 239.229 303.834 239.254C303.785 239.279 303.732 239.295 303.678 239.299C303.623 239.303 303.568 239.296 303.517 239.278C303.465 239.26 303.417 239.232 303.376 239.195C303.334 239.158 303.301 239.113 303.276 239.063C303.252 239.012 303.237 238.957 303.233 238.901C303.229 238.845 303.236 238.788 303.253 238.735C303.27 238.681 303.298 238.632 303.333 238.589L307.151 234.03C307.489 233.627 307.927 233.329 308.419 233.167C308.91 233.005 309.435 232.986 309.936 233.113C310.436 233.239 310.894 233.506 311.258 233.883C311.621 234.261 311.878 234.735 311.998 235.253L324.382 288.768C324.408 288.879 324.39 288.996 324.332 289.093C324.274 289.19 324.182 289.259 324.075 289.286C324.043 289.293 324.011 289.297 323.979 289.296Z" fill="#494949"/>
<path d="M319.412 251.04C320.917 242.042 316.933 233.818 310.513 232.671C304.092 231.523 297.667 237.887 296.161 246.884C294.656 255.882 298.64 264.106 305.061 265.253C311.481 266.401 317.906 260.037 319.412 251.04Z" fill="#1F41BB"/>
<path d="M327.333 290.695C327.316 290.695 327.299 290.694 327.281 290.691C327.172 290.678 327.073 290.619 327.005 290.53C326.937 290.44 326.906 290.326 326.92 290.213L334.828 223.854C334.914 223.131 335.201 222.449 335.653 221.89C336.105 221.331 336.704 220.919 337.377 220.703C338.051 220.488 338.77 220.478 339.449 220.675C340.128 220.872 340.737 221.268 341.203 221.814L350.242 232.395C350.315 232.48 350.353 232.592 350.346 232.706C350.339 232.819 350.289 232.925 350.206 233.001C350.123 233.076 350.015 233.115 349.905 233.108C349.795 233.1 349.692 233.048 349.619 232.963L340.58 222.382C340.22 221.96 339.749 221.654 339.224 221.502C338.699 221.35 338.143 221.357 337.622 221.524C337.102 221.691 336.639 222.01 336.289 222.442C335.94 222.874 335.719 223.402 335.653 223.961L327.743 290.318C327.731 290.422 327.682 290.517 327.607 290.586C327.531 290.656 327.434 290.694 327.333 290.695Z" fill="#494949"/>
<path d="M359.512 238.274C362.665 232.381 358.955 224.022 351.223 219.602C343.492 215.183 334.668 216.377 331.514 222.269C328.361 228.161 332.071 236.521 339.803 240.941C347.534 245.36 356.358 244.166 359.512 238.274Z" fill="#1F41BB"/>
<path opacity="0.2" d="M359.858 277.328C364.967 273.149 364.664 263.957 359.18 256.797C353.697 249.638 345.11 247.222 340.001 251.401C334.892 255.581 335.196 264.772 340.679 271.932C346.163 279.091 354.75 281.507 359.858 277.328Z" fill="white"/>
<path opacity="0.5" d="M319.412 251.04C320.917 242.042 316.933 233.818 310.513 232.671C304.092 231.523 297.667 237.887 296.161 246.884C294.656 255.882 298.64 264.106 305.061 265.253C311.481 266.401 317.906 260.037 319.412 251.04Z" fill="white"/>
<path opacity="0.5" d="M359.512 238.274C362.665 232.381 358.955 224.022 351.223 219.602C343.492 215.183 334.668 216.377 331.514 222.269C328.361 228.161 332.071 236.521 339.803 240.941C347.534 245.36 356.358 244.166 359.512 238.274Z" fill="white"/>
<path d="M337.447 347H317.217L313.865 280.106H340.8L337.447 347Z" fill="#292A2E"/>
<path opacity="0.3" d="M337.447 347H317.217L313.865 280.106H340.8L337.447 347Z" fill="white"/>
<path d="M359.859 277.54C359.827 277.54 359.796 277.533 359.768 277.519C359.74 277.505 359.715 277.484 359.695 277.459L339.837 251.532C339.803 251.487 339.787 251.43 339.794 251.374C339.8 251.317 339.828 251.266 339.871 251.23C339.914 251.195 339.969 251.179 340.024 251.185C340.079 251.192 340.129 251.221 340.163 251.265L360.021 277.192C360.045 277.224 360.061 277.262 360.065 277.302C360.069 277.342 360.063 277.382 360.046 277.419C360.029 277.455 360.002 277.486 359.969 277.507C359.936 277.529 359.898 277.54 359.859 277.54Z" fill="white"/>
<path d="M358.191 240.351C358.147 240.351 358.104 240.336 358.069 240.308L332.658 221.134C332.636 221.117 332.617 221.096 332.603 221.072C332.589 221.048 332.579 221.022 332.575 220.994C332.571 220.966 332.572 220.937 332.578 220.91C332.585 220.883 332.596 220.857 332.612 220.834C332.628 220.811 332.649 220.792 332.672 220.777C332.695 220.763 332.721 220.753 332.748 220.748C332.775 220.744 332.803 220.745 332.829 220.752C332.856 220.759 332.881 220.771 332.903 220.787L358.314 239.963C358.348 239.99 358.374 240.028 358.387 240.07C358.4 240.113 358.4 240.159 358.386 240.202C358.373 240.244 358.347 240.282 358.312 240.308C358.277 240.335 358.235 240.349 358.191 240.35V240.351Z" fill="white"/>
<path d="M304.028 264.974C304.01 264.974 303.992 264.971 303.974 264.966C303.921 264.952 303.876 264.916 303.848 264.866C303.821 264.817 303.813 264.758 303.827 264.703L311.917 233.381C311.923 233.354 311.935 233.328 311.952 233.305C311.968 233.282 311.989 233.263 312.013 233.248C312.037 233.234 312.063 233.224 312.09 233.22C312.117 233.217 312.145 233.218 312.172 233.226C312.199 233.233 312.223 233.246 312.245 233.263C312.267 233.281 312.285 233.302 312.299 233.327C312.313 233.352 312.321 233.379 312.325 233.408C312.328 233.436 312.326 233.465 312.318 233.492L304.229 264.814C304.217 264.86 304.191 264.9 304.155 264.929C304.118 264.958 304.074 264.974 304.028 264.974Z" fill="white"/>
</g>
<defs>
<clipPath id="clip0_2_20">
<rect width="363" height="370" fill="white" transform="translate(0.5)"/>
</clipPath>
</defs>
</svg>
